<?xml version="1.0" encoding="UTF-8"?>
<svg id="Layer_2" data-name="Layer 2" xmlns="http://www.w3.org/2000/svg" xmlns:xlink="http://www.w3.org/1999/xlink" viewBox="0 0 216.35 93.44">
  <defs>
    <style>
      .cls-1 {
        fill: url(#linear-gradient);
      }

      .cls-2 {
        fill: #00a79d;
      }

      .cls-3 {
        fill: #0c4f9f;
      }
    </style>
    <linearGradient id="linear-gradient" x1="13322.63" y1="2212.56" x2="13356.93" y2="2212.56" gradientTransform="translate(13412.59 2141.43) rotate(-161.62) scale(1 -1)" gradientUnits="userSpaceOnUse">
      <stop offset=".3" stop-color="#31afa4" stop-opacity=".9"/>
      <stop offset="1" stop-color="#499ad5" stop-opacity=".3"/>
    </linearGradient>
  </defs>
  <g id="Layer_1-2" data-name="Layer 1">
    <g>
      <path class="cls-3" d="m5.37,21.7l31.35,11.1c1.17.41,2.08,1.35,2.48,2.52l17.54,52.81c1.07,3.23-2.1,6.25-5.28,5.02l-31.77-12.36c-1.12-.43-1.98-1.34-2.36-2.48L.21,26.76c-1.06-3.18,2.01-6.18,5.16-5.06Z"/>
      <path class="cls-1" d="m78.58.24l-31.35,11.1c-1.17.41-2.08,1.35-2.48,2.52l-17.54,52.81c-1.07,3.23,2.1,6.25,5.28,5.02l31.77-12.36c1.12-.43,1.98-1.34,2.36-2.48L83.74,5.3c1.06-3.18-2.01-6.18-5.16-5.06Z"/>
    </g>
    <g>
      <path class="cls-3" d="m105.12,28.61l4.48,14.07h.17l4.48-14.07h4.34l-6.38,18.52h-5.05l-6.39-18.52h4.35Z"/>
      <path class="cls-3" d="m132.25,28.61h3.92v12.03c0,1.35-.32,2.53-.96,3.54-.64,1.01-1.54,1.8-2.69,2.37-1.15.56-2.49.85-4.02.85s-2.88-.28-4.03-.85c-1.15-.56-2.05-1.35-2.69-2.37-.64-1.01-.96-2.19-.96-3.54v-12.03h3.92v11.69c0,.71.16,1.33.47,1.88.31.55.75.98,1.32,1.29.57.31,1.23.47,1.98.47s1.42-.16,1.98-.47c.56-.31,1-.74,1.31-1.29.31-.55.47-1.18.47-1.88v-11.69Z"/>
      <path class="cls-3" d="m139.39,47.13v-18.52h3.92v15.29h7.94v3.23h-11.85Z"/>
      <path class="cls-3" d="m150.83,31.84v-3.23h15.21v3.23h-5.67v15.29h-3.87v-15.29h-5.67Z"/>
      <path class="cls-3" d="m179.99,28.61h3.92v12.03c0,1.35-.32,2.53-.96,3.54-.64,1.01-1.54,1.8-2.69,2.37-1.15.56-2.49.85-4.02.85s-2.88-.28-4.03-.85c-1.15-.56-2.05-1.35-2.69-2.37-.64-1.01-.96-2.19-.96-3.54v-12.03h3.92v11.69c0,.71.16,1.33.47,1.88.31.55.75.98,1.32,1.29.57.31,1.23.47,1.98.47s1.42-.16,1.98-.47c.56-.31,1-.74,1.31-1.29.31-.55.47-1.18.47-1.88v-11.69Z"/>
      <path class="cls-3" d="m187.12,47.13v-18.52h7.31c1.4,0,2.59.25,3.59.75.99.5,1.75,1.2,2.27,2.11.52.91.78,1.97.78,3.2s-.26,2.29-.79,3.17c-.53.88-1.3,1.56-2.3,2.03-1,.47-2.22.7-3.64.7h-4.89v-3.15h4.26c.75,0,1.37-.1,1.86-.31s.86-.51,1.11-.92.37-.92.37-1.53-.12-1.13-.37-1.56-.61-.74-1.11-.96c-.5-.22-1.12-.33-1.88-.33h-2.64v15.32h-3.92Zm10-8.43l4.6,8.43h-4.32l-4.5-8.43h4.22Z"/>
      <path class="cls-3" d="m203.83,47.13v-18.52h12.48v3.23h-8.56v4.41h7.92v3.23h-7.92v4.42h8.6v3.23h-12.52Z"/>
      <path class="cls-2" d="m101.31,72.23v-18.52h7.31c1.4,0,2.6.27,3.59.8.99.53,1.74,1.27,2.27,2.21.52.94.78,2.03.78,3.26s-.26,2.31-.79,3.25c-.53.94-1.3,1.67-2.3,2.2-1,.52-2.22.79-3.64.79h-4.66v-3.14h4.02c.75,0,1.38-.13,1.87-.39s.86-.63,1.1-1.09c.24-.47.37-1,.37-1.61s-.12-1.15-.37-1.61c-.24-.46-.61-.82-1.11-1.08s-1.12-.38-1.88-.38h-2.64v15.32h-3.92Z"/>
      <path class="cls-2" d="m117.8,72.23v-18.52h7.31c1.4,0,2.59.25,3.59.75s1.75,1.2,2.27,2.11c.52.91.78,1.97.78,3.2s-.26,2.29-.79,3.17c-.53.88-1.3,1.56-2.3,2.03-1,.47-2.22.7-3.64.7h-4.89v-3.15h4.26c.75,0,1.37-.1,1.86-.31s.86-.51,1.11-.92.37-.92.37-1.53-.12-1.13-.37-1.56-.61-.74-1.11-.96c-.5-.22-1.12-.33-1.88-.33h-2.64v15.32h-3.92Zm10-8.43l4.6,8.43h-4.32l-4.5-8.43h4.22Z"/>
      <path class="cls-2" d="m138.43,53.71v18.52h-3.92v-18.52h3.92Z"/>
      <path class="cls-2" d="m141.66,53.71h4.83l5.1,12.44h.22l5.1-12.44h4.83v18.52h-3.8v-12.05h-.15l-4.79,11.96h-2.59l-4.79-12.01h-.15v12.1h-3.8v-18.52Z"/>
      <path class="cls-2" d="m164.95,72.23v-18.52h12.48v3.23h-8.56v4.41h7.92v3.23h-7.92v4.42h8.6v3.23h-12.52Z"/>
    </g>
  </g>
</svg>